<svg width="16" height="16" viewBox="0 0 16 16" fill="none" xmlns="http://www.w3.org/2000/svg">
<g clip-path="url(#clip0_62690_890)">
<circle cx="8" cy="8" r="8" transform="rotate(180 8 8)" fill="#242B2E"/>
<path d="M7.95607 10.0801C8.3036 10.0801 8.59021 9.80784 8.60803 9.46076L8.84755 4.79587L8.87778 3.95545C8.89655 3.43342 8.47844 3 7.95607 3C7.4337 3 7.01559 3.43342 7.03437 3.95545L7.0646 4.79587L7.30412 9.46076C7.32194 9.80784 7.60854 10.0801 7.95607 10.0801ZM7.99483 13C8.50145 13 8.91214 12.5893 8.91214 12.0827C8.91214 11.5761 8.50145 11.1654 7.99483 11.1654H7.94315C7.43654 11.1654 7.02584 11.5761 7.02584 12.0827C7.02584 12.5893 7.43653 13 7.94315 13H7.99483Z" fill="white"/>
</g>
<defs>
<clipPath id="clip0_62690_890">
<rect width="16" height="16" fill="white"/>
</clipPath>
</defs>
</svg>
