<svg width="16" height="16" viewBox="0 0 16 16" fill="none" xmlns="http://www.w3.org/2000/svg">
<path d="M6.88778 7.39658C6.31013 6.83666 6 6.20867 6 5.19068C6 3.39936 7.37794 1.79381 9.38175 1L9.88256 1.70527C8.01223 2.62857 7.64657 3.82672 7.50076 4.58214C7.80192 4.43986 8.19618 4.39022 8.58258 4.42297C9.5943 4.50844 10.3918 5.26643 10.3918 6.20867C10.3918 6.68376 10.185 7.13939 9.81688 7.47533C9.44877 7.81127 8.9495 8 8.42892 8C7.82715 8 7.25175 7.74921 6.88778 7.39658ZM12.496 7.39658C11.9183 6.83666 11.6082 6.20867 11.6082 5.19068C11.6082 3.39936 12.9861 1.79381 14.99 1L15.4908 1.70527C13.6204 2.62857 13.2548 3.82672 13.109 4.58214C13.4101 4.43986 13.8044 4.39022 14.1908 4.42297C15.2025 4.50844 16 5.26643 16 6.20867C16 6.68376 15.7932 7.13939 15.4251 7.47533C15.057 7.81127 14.5577 8 14.0371 8C13.4354 8 12.86 7.74921 12.496 7.39658Z" fill="#242B2E"/>
</svg>
