<svg width="12" height="13" viewBox="0 0 12 13" fill="none" xmlns="http://www.w3.org/2000/svg">
<path fill-rule="evenodd" clip-rule="evenodd" d="M9.54075 4.20711C9.93128 3.81658 9.93128 3.18342 9.54075 2.79289C9.15023 2.40237 8.51706 2.40237 8.12654 2.79289L5.91682 5.00261L3.70712 2.79291C3.3166 2.40239 2.68343 2.40239 2.29291 2.79291C1.90238 3.18343 1.90238 3.8166 2.29291 4.20712L4.50261 6.41683L2.29291 8.62653C1.90238 9.01706 1.90238 9.65022 2.29291 10.0407C2.68343 10.4313 3.3166 10.4313 3.70712 10.0407L5.91682 7.83104L8.12654 10.0408C8.51706 10.4313 9.15023 10.4313 9.54075 10.0408C9.93128 9.65024 9.93128 9.01707 9.54075 8.62655L7.33103 6.41683L9.54075 4.20711Z" fill="white"/>
</svg>
