<svg width="16" height="16" viewBox="0 0 16 16" fill="none" xmlns="http://www.w3.org/2000/svg">
<circle cx="8" cy="8" r="8" fill="#565C63"/>
<path d="M7.1235 9.4919C7.13135 9.87392 7.46296 10.1584 7.84506 10.1584C8.31007 10.1584 8.6469 9.74067 8.70121 9.27884C8.91658 7.44722 11 7.877 11 5.4521C11 3.92983 9.75346 3.06722 8.13702 3.00379C6.98138 2.94974 5.6268 3.4668 5.15824 5.01025C5.01463 5.48332 5.4193 5.90878 5.91369 5.90878C6.36323 5.90878 6.70357 5.54252 6.89457 5.13557C7.12371 4.64734 7.5461 4.41188 8.08223 4.41188C8.84935 4.41188 9.17812 4.91931 9.17812 5.57895C9.17812 7.10804 7.07004 6.89216 7.1235 9.4919ZM8.04457 13C8.542 13 8.94524 12.5968 8.94524 12.0993C8.94524 11.6019 8.542 11.1987 8.04457 11.1987H7.84591C7.34849 11.1987 6.94524 11.6019 6.94524 12.0993C6.94524 12.5968 7.34849 13 7.84591 13H8.04457Z" fill="white"/>
</svg>
