<svg width="24" height="21" viewBox="0 0 24 21" fill="none" xmlns="http://www.w3.org/2000/svg">
<path d="M23.9298 9.09366C23.6344 6.6084 22.4272 4.31411 20.5341 2.64026C18.6411 0.966406 16.192 0.0277501 13.6453 0H13.5297C11.6826 0.00150184 9.86842 0.481182 8.27 1.39073L8.19103 1.43803L8.1217 1.47777C2.13587 4.98013 0 13.0672 0 17.9905L4.81486 15.2564C6.51354 18.4371 9.77416 20.5317 13.4084 20.5714H13.524C13.9295 20.5715 14.3346 20.5481 14.7373 20.5014C16.1034 20.3455 17.4248 19.9267 18.6261 19.269C19.8274 18.6112 20.885 17.7275 21.7386 16.6682C22.5923 15.6088 23.2251 14.3947 23.6011 13.095C23.9771 11.7954 24.0888 10.4357 23.9298 9.09366Z" fill="#0050FF"/>
</svg>
