<svg width="24" height="24" viewBox="0 0 24 24" fill="none" xmlns="http://www.w3.org/2000/svg">
<path fill-rule="evenodd" clip-rule="evenodd" d="M5.63604 20.3638C7.32387 22.0517 9.61305 22.9999 12 22.9999C14.0419 23.0029 16.0235 22.3086 17.617 21.0319L16.192 19.6059C15.1516 20.3839 13.9152 20.857 12.6212 20.9723C11.3272 21.0876 10.0266 20.8405 8.86503 20.2586C7.70346 19.6768 6.72673 18.7832 6.04413 17.6779C5.36153 16.5725 5 15.299 5 13.9999V9.99988L5.004 9.75888C5.0351 8.82304 5.25423 7.90303 5.64834 7.05365C6.04245 6.20427 6.60348 5.4429 7.298 4.81488C7.102 5.84688 7 6.91188 7 7.99988V11.0009H9V7.99988L9.003 7.68688C9.034 6.18488 9.285 4.73788 9.727 3.37688C10.4577 3.12698 11.2247 2.99927 11.997 2.99888C11.3367 4.5834 10.9979 6.2833 11 7.99988V14.9999H13V7.99988L13.003 7.71188C13.0493 5.82624 13.5833 3.98475 14.553 2.36688L14.723 2.08688C14.841 1.90188 14.964 1.72188 15.092 1.54488C13.7318 1.0473 12.2717 0.885329 10.8355 1.07273C9.39935 1.26012 8.02964 1.79135 6.84269 2.62129C5.65574 3.45123 4.68662 4.55537 4.01763 5.83994C3.34864 7.12451 2.99955 8.55155 3 9.99988V13.9999C3 16.3868 3.94821 18.676 5.63604 20.3638ZM15.5355 17.5354C16.4732 16.5977 17 15.326 17 13.9999V7.99988L17.004 7.75888C17.0279 7.01535 17.1718 6.28055 17.43 5.58288C18.412 6.78788 19 8.32488 19 9.99988V13.9999L18.996 14.2409C18.9489 15.6693 18.4637 17.0487 17.606 18.1919L19.032 19.6169C20.264 18.0779 21 16.1249 21 13.9999V9.99988C21.0036 7.65722 20.0905 5.40613 18.456 3.72788L18.147 3.42788C17.7636 3.0692 17.3497 2.74464 16.91 2.45788C16.619 2.82888 16.358 3.22288 16.128 3.63688L16.104 3.67688C15.4 4.95988 15 6.43288 15 7.99988V13.9999L14.995 14.1759C14.9499 14.9555 14.6027 15.6868 14.027 16.2144C13.4513 16.742 12.6925 17.0244 11.912 17.0015C11.1314 16.9786 10.3905 16.6522 9.84677 16.0917C9.30302 15.5312 8.99925 14.7808 9 13.9999V12.9999H7V13.9999C7 15.326 7.52678 16.5977 8.46447 17.5354C9.40215 18.4731 10.6739 18.9999 12 18.9999C13.3261 18.9999 14.5979 18.4731 15.5355 17.5354Z" fill="black"/>
</svg>
