<svg width="40" height="40" viewBox="0 0 40 40" fill="none" xmlns="http://www.w3.org/2000/svg">
<rect width="40" height="40" rx="20" fill="#FEE500"/>
<path d="M19.9943 12C15.5689 12 12 15.0888 12 18.8386C12 21.2726 13.4847 23.4039 15.7116 24.6209L14.9579 27.6665C14.9437 27.7121 14.9415 27.7611 14.9516 27.808C14.9617 27.8549 14.9836 27.8979 15.015 27.9321C15.0607 27.9757 15.1196 27.9998 15.1806 28C15.2312 27.9956 15.2791 27.974 15.3176 27.9382L18.561 25.5722C19.0398 25.6437 19.5224 25.6808 20.0057 25.6834C24.4254 25.6834 28 22.5946 28 18.8386C28 15.0826 24.414 12 19.9943 12Z" fill="#392020"/>
</svg>
