<svg width="40" height="40" viewBox="0 0 40 40" fill="none" xmlns="http://www.w3.org/2000/svg">
<rect width="40" height="40" rx="20" fill="#0050FF"/>
<path d="M27.9532 19.0624C27.7563 17.4056 26.9515 15.8761 25.6894 14.7602C24.4274 13.6443 22.7947 13.0185 21.0969 13H21.0198C19.7884 13.001 18.5789 13.3208 17.5133 13.9272L17.4607 13.9587L17.4145 13.9852C13.4239 16.3201 12 21.7114 12 24.9937L15.2099 23.1709C16.3424 25.2914 18.5161 26.6878 20.9389 26.7143H21.016C21.2863 26.7143 21.5564 26.6988 21.8249 26.6676C22.7356 26.5636 23.6165 26.2844 24.4174 25.846C25.2182 25.4075 25.9233 24.8183 26.4924 24.1121C27.0615 23.4059 27.4834 22.5964 27.7341 21.73C27.9847 20.8636 28.0592 19.9571 27.9532 19.0624Z" fill="white"/>
</svg>
