<svg width="40" height="40" viewBox="0 0 40 40" fill="none" xmlns="http://www.w3.org/2000/svg">
<rect width="40" height="40" rx="20" fill="#FF6600"/>
<path fill-rule="evenodd" clip-rule="evenodd" d="M13.7071 12.2929C13.3166 11.9024 12.6834 11.9024 12.2929 12.2929C11.9024 12.6834 11.9024 13.3166 12.2929 13.7071L18.5858 20L12.2929 26.2929C11.9024 26.6834 11.9024 27.3166 12.2929 27.7071C12.6834 28.0976 13.3166 28.0976 13.7071 27.7071L20 21.4142L26.2929 27.7071C26.6834 28.0976 27.3166 28.0976 27.7071 27.7071C28.0976 27.3166 28.0976 26.6834 27.7071 26.2929L21.4142 20L27.7071 13.7071C28.0976 13.3166 28.0976 12.6834 27.7071 12.2929C27.3166 11.9024 26.6834 11.9024 26.2929 12.2929L20 18.5858L13.7071 12.2929Z" fill="white"/>
</svg>
