<svg width="24" height="25" viewBox="0 0 24 25" fill="none" xmlns="http://www.w3.org/2000/svg">
<path fill-rule="evenodd" clip-rule="evenodd" d="M3 5.88184L12 1.38184L21 5.88184V14.5947C21 15.7819 20.4727 16.9077 19.5607 17.6676L16.4011 20.3006L14.9244 18.9278L18.2804 16.1312C18.7364 15.7512 19 15.1883 19 14.5947V7.1179L12 3.6179L5 7.1179V14.572C5 15.1742 5.27139 15.7444 5.73881 16.1242L12.0246 21.2314L13.3795 20.2152L14.8562 21.588L14.6205 21.7845L11.9754 23.7683L4.47763 17.6764C3.54279 16.9169 3 15.7765 3 14.572V5.88184ZM12 12.4999C13.1046 12.4999 14 11.6044 14 10.4999C14 9.39531 13.1046 8.49988 12 8.49988C10.8954 8.49988 10 9.39531 10 10.4999C10 11.6044 10.8954 12.4999 12 12.4999ZM8 16.4999C8 14.843 9.79086 13.4999 12 13.4999C14.2091 13.4999 16 14.843 16 16.4999H8Z" fill="black"/>
</svg>
