<svg width="40" height="40" viewBox="0 0 40 40" fill="none" xmlns="http://www.w3.org/2000/svg">
<rect width="40" height="40" rx="20" fill="#F4F4F4"/>
<path fill-rule="evenodd" clip-rule="evenodd" d="M13.636 28.3638C15.3239 30.0517 17.6131 30.9999 20 30.9999C22.0419 31.0029 24.0235 30.3086 25.617 29.0319L24.192 27.6059C23.1516 28.3839 21.9152 28.857 20.6212 28.9723C19.3272 29.0876 18.0266 28.8405 16.865 28.2586C15.7035 27.6768 14.7267 26.7832 14.0441 25.6779C13.3615 24.5725 13 23.299 13 21.9999V17.9999L13.004 17.7589C13.0351 16.823 13.2542 15.903 13.6483 15.0536C14.0425 14.2043 14.6035 13.4429 15.298 12.8149C15.102 13.8469 15 14.9119 15 15.9999V19.0009H17V15.9999L17.003 15.6869C17.034 14.1849 17.285 12.7379 17.727 11.3769C18.4577 11.127 19.2247 10.9993 19.997 10.9989C19.3367 12.5834 18.9979 14.2833 19 15.9999V22.9999H21V15.9999L21.003 15.7119C21.0493 13.8262 21.5833 11.9847 22.553 10.3669L22.723 10.0869C22.841 9.90188 22.964 9.72188 23.092 9.54488C21.7318 9.0473 20.2717 8.88533 18.8355 9.07273C17.3994 9.26012 16.0296 9.79135 14.8427 10.6213C13.6557 11.4512 12.6866 12.5554 12.0176 13.8399C11.3486 15.1245 10.9995 16.5516 11 17.9999V21.9999C11 24.3868 11.9482 26.676 13.636 28.3638ZM23.5355 25.5354C24.4732 24.5977 25 23.326 25 21.9999V15.9999L25.004 15.7589C25.0279 15.0153 25.1718 14.2806 25.43 13.5829C26.412 14.7879 27 16.3249 27 17.9999V21.9999L26.996 22.2409C26.9489 23.6693 26.4637 25.0487 25.606 26.1919L27.032 27.6169C28.264 26.0779 29 24.1249 29 21.9999V17.9999C29.0036 15.6572 28.0905 13.4061 26.456 11.7279L26.147 11.4279C25.7636 11.0692 25.3497 10.7446 24.91 10.4579C24.619 10.8289 24.358 11.2229 24.128 11.6369L24.104 11.6769C23.4 12.9599 23 14.4329 23 15.9999V21.9999L22.995 22.1759C22.9499 22.9555 22.6027 23.6868 22.027 24.2144C21.4513 24.742 20.6925 25.0244 19.912 25.0015C19.1314 24.9786 18.3905 24.6522 17.8468 24.0917C17.303 23.5312 16.9992 22.7808 17 21.9999V20.9999H15V21.9999C15 23.326 15.5268 24.5977 16.4645 25.5354C17.4021 26.4731 18.6739 26.9999 20 26.9999C21.3261 26.9999 22.5979 26.4731 23.5355 25.5354Z" fill="black"/>
</svg>
