<svg width="24" height="24" viewBox="0 0 24 24" fill="none" xmlns="http://www.w3.org/2000/svg">
<path fill-rule="evenodd" clip-rule="evenodd" d="M7 1C4.79086 1 3 2.79086 3 5V6V8V19C3 21.2091 4.79086 23 7 23H20H21V21H20H7C5.89543 21 5 20.1046 5 19V8H19V18.3636V19.3636H21V18.3636V8V6V5C21 2.79086 19.2091 1 17 1H7ZM19 6H5V5C5 3.89543 5.89543 3 7 3H17C18.1046 3 19 3.89543 19 5V6ZM9 17C8.44772 17 8 17.4477 8 18C8 18.5523 8.44772 19 9 19H15C15.5523 19 16 18.5523 16 18C16 17.4477 15.5523 17 15 17H9Z" fill="black"/>
</svg>
